# xmcd
#
# Track frame offsets:
#	150
#	12765
#	27888
#	42648
#	55753
#	68203
#	82313
#	96045
#	111045
#	123983
#
# Disc length: 1848 seconds
#
# Revision: 4
# Processed by: cddbd v1.5.1PL2 Copyright (c) Steve Scherf et al.
# Submitted via: dBpowerAMP V4.0
#
DISCID=8007360a
DTITLE=Sawyer Brown - Greatest Hits
DYEAR=1990
DGENRE=Country
TTITLE0=Step That Step
TTITLE1=Heart Don't Fall Now
TTITLE2=Betty's Bein' Bad
TTITLE3=The Race Is On
TTITLE4=When Love Comes Callin'
TTITLE5=Puttin' The Dark Back Into The Night
TTITLE6=Leona
TTITLE7=Used To Blue
TTITLE8=Out Goin' Cattin'
TTITLE9=Shakin'
EXTD=
EXTT0=
EXTT1=
EXTT2=
EXTT3=
EXTT4=
EXTT5=
EXTT6=
EXTT7=
EXTT8=
EXTT9=
PLAYORDER=
